<svg t="1572334548133" class="icon" viewBox="0 0 1024 1024" version="1.1" xmlns="http://www.w3.org/2000/svg" p-id="869" xmlns:xlink="http://www.w3.org/1999/xlink" width="32" height="32"><defs><style type="text/css"></style></defs><path d="M1006.344 441.38c0-234.02-189.704-423.724-423.724-423.724V441.38h423.724z" fill="#FFC117" p-id="870"></path><path d="M494.344 335.448V52.966c-263.274 0-476.69 213.416-476.69 476.69h282.482c0.002-107.256 86.954-194.208 194.208-194.208z" fill="#F5F1EF" p-id="871"></path><path d="M688.552 529.656c0 107.256-86.952 194.206-194.206 194.206v282.482c263.274 0 476.69-213.416 476.69-476.69H688.552z" fill="#DEDAD8" p-id="872"></path><path d="M300.138 529.656H17.656c0 263.274 213.416 476.69 476.69 476.69V723.862c-107.256 0-194.208-86.952-194.208-194.206z" fill="#55A9DB" p-id="873"></path><path d="M582.62 0c-9.746 0-17.656 7.91-17.656 17.656V441.38c0 9.746 7.91 17.656 17.656 17.656h423.724c9.746 0 17.656-7.91 17.656-17.656C1023.736 197.72 826.28 0.264 582.62 0z m17.656 423.724V35.682c210.29 9.428 378.616 177.752 388.044 388.044H600.276z" fill="" p-id="874"></path><path d="M776.828 353.104h35.31v35.31h-35.31zM706.206 353.104h35.31v35.31h-35.31zM635.586 353.104h35.31v35.31h-35.31z" fill="" p-id="875"></path><path d="M494.344 1024c272.896-0.318 494.028-221.448 494.344-494.344 0-9.746-7.91-17.656-17.656-17.656h-282.48c-9.746 0-17.656 7.91-17.656 17.656 0 97.51-79.042 176.552-176.552 176.552s-176.552-79.042-176.552-176.552 79.042-176.552 176.552-176.552c9.746 0 17.656-7.91 17.656-17.656V52.966c0-9.746-7.91-17.656-17.656-17.656C221.326 35.31 0 256.636 0 529.656S221.326 1024 494.344 1024z m211.14-476.69h247.56C943.51 786.82 751.51 978.768 512 988.248V740.67c102.982-8.722 184.708-90.378 193.484-193.36z m-228.794 193.306v247.632c-239.474-9.498-431.44-201.464-440.938-440.938h247.632c8.72 102.93 90.376 184.586 193.306 193.306z m0-669.66v247.56c-102.982 8.774-184.638 90.5-193.36 193.484H35.752C45.232 272.49 237.18 80.49 476.69 70.956z" fill="" p-id="876"></path><path d="M105.932 370.758h52.966v35.31H105.932zM105.932 441.38h141.242v35.31H105.932zM741.518 582.62h52.966v35.31h-52.966zM741.518 653.242h141.242v35.31h-141.242zM211.862 706.206h52.966v35.31h-52.966zM211.862 776.828h141.242v35.31h-141.242z" fill="" p-id="877"></path></svg>